<mxfile host="app.diagrams.net" modified="2024-05-15T13:51:53.974Z" agent="Mozilla/5.0 (Windows NT 10.0; Win64; x64; rv:125.0) Gecko/20100101 Firefox/125.0" etag="W7O6fJMWLVk7Ci9NrgRj" version="24.4.0" type="device">
  <diagram name="ページ1" id="6O8cq4Rfigk1k-ii5kAo">
    <mxGraphModel dx="2465" dy="714" grid="1" gridSize="10" guides="1" tooltips="1" connect="1" arrows="1" fold="1" page="1" pageScale="1" pageWidth="827" pageHeight="1169" math="0" shadow="0">
      <root>
        <mxCell id="0" />
        <object label="ネットワーク" id="1">
          <mxCell style="locked=1;" parent="0" />
        </object>
        <mxCell id="nmcxP7l3HHxIJU_-N-T5-9" value="" style="endArrow=oval;html=1;rounded=0;startArrow=oval;startFill=1;endFill=1;strokeWidth=4;fillColor=#a20025;strokeColor=#6F0000;" parent="1" edge="1">
          <mxGeometry width="50" height="50" relative="1" as="geometry">
            <mxPoint x="-694" y="35" as="sourcePoint" />
            <mxPoint x="626" y="35" as="targetPoint" />
          </mxGeometry>
        </mxCell>
        <mxCell id="nmcxP7l3HHxIJU_-N-T5-10" value="10.0.0.0/24" style="text;html=1;align=center;verticalAlign=middle;resizable=0;points=[];autosize=1;strokeColor=none;fillColor=none;" parent="1" vertex="1">
          <mxGeometry x="-784" y="20" width="80" height="30" as="geometry" />
        </mxCell>
        <mxCell id="nmcxP7l3HHxIJU_-N-T5-11" value="" style="endArrow=oval;html=1;rounded=0;startArrow=oval;startFill=1;endFill=1;strokeWidth=4;fillColor=#a20025;strokeColor=#1C6EFF;" parent="1" edge="1">
          <mxGeometry width="50" height="50" relative="1" as="geometry">
            <mxPoint x="-694" y="109.5" as="sourcePoint" />
            <mxPoint x="626" y="109.5" as="targetPoint" />
          </mxGeometry>
        </mxCell>
        <mxCell id="nmcxP7l3HHxIJU_-N-T5-12" value="172.16.0.0/24" style="text;html=1;align=center;verticalAlign=middle;resizable=0;points=[];autosize=1;strokeColor=none;fillColor=none;" parent="1" vertex="1">
          <mxGeometry x="-794" y="95" width="100" height="30" as="geometry" />
        </mxCell>
        <mxCell id="nmcxP7l3HHxIJU_-N-T5-13" value="" style="endArrow=none;html=1;rounded=0;startArrow=none;startFill=0;endFill=0;strokeWidth=4;fillColor=#a20025;strokeColor=#1C6EFF;jumpStyle=arc;" parent="1" edge="1">
          <mxGeometry width="50" height="50" relative="1" as="geometry">
            <mxPoint x="-562" y="110" as="sourcePoint" />
            <mxPoint x="-562" y="190" as="targetPoint" />
          </mxGeometry>
        </mxCell>
        <mxCell id="nmcxP7l3HHxIJU_-N-T5-14" value="" style="endArrow=none;html=1;rounded=0;startArrow=none;startFill=0;endFill=0;strokeWidth=4;fillColor=#a20025;strokeColor=#1C6EFF;jumpStyle=arc;" parent="1" edge="1">
          <mxGeometry width="50" height="50" relative="1" as="geometry">
            <mxPoint x="-237" y="110" as="sourcePoint" />
            <mxPoint x="-237.5" y="180" as="targetPoint" />
          </mxGeometry>
        </mxCell>
        <mxCell id="nmcxP7l3HHxIJU_-N-T5-15" value="" style="endArrow=none;html=1;rounded=0;startArrow=none;startFill=0;endFill=0;strokeWidth=4;fillColor=#a20025;strokeColor=#6F0000;jumpStyle=arc;" parent="1" edge="1">
          <mxGeometry width="50" height="50" relative="1" as="geometry">
            <mxPoint x="434.5" y="36" as="sourcePoint" />
            <mxPoint x="434.5" y="190" as="targetPoint" />
          </mxGeometry>
        </mxCell>
        <mxCell id="nmcxP7l3HHxIJU_-N-T5-16" value="" style="endArrow=none;html=1;rounded=0;startArrow=none;startFill=0;endFill=0;strokeWidth=4;fillColor=#a20025;strokeColor=#6F0000;jumpStyle=arc;" parent="1" edge="1">
          <mxGeometry width="50" height="50" relative="1" as="geometry">
            <mxPoint x="-443" y="34" as="sourcePoint" />
            <mxPoint x="-443" y="190" as="targetPoint" />
          </mxGeometry>
        </mxCell>
        <object label="マシン" id="ExSx5SIZApUU_Iw7rpWn-6">
          <mxCell style="locked=1;" parent="0" />
        </object>
        <mxCell id="nmcxP7l3HHxIJU_-N-T5-17" value="" style="rounded=1;whiteSpace=wrap;html=1;fillColor=#dae8fc;strokeColor=#6c8ebf;" parent="ExSx5SIZApUU_Iw7rpWn-6" vertex="1">
          <mxGeometry x="-655" y="190" width="1240" height="530" as="geometry" />
        </mxCell>
        <mxCell id="nmcxP7l3HHxIJU_-N-T5-18" value="eth1" style="rounded=0;whiteSpace=wrap;html=1;fillColor=#e3c800;fontColor=#000000;strokeColor=#B09500;" parent="ExSx5SIZApUU_Iw7rpWn-6" vertex="1">
          <mxGeometry x="-482" y="180" width="80" height="20" as="geometry" />
        </mxCell>
        <mxCell id="nmcxP7l3HHxIJU_-N-T5-19" value="eth0" style="rounded=0;whiteSpace=wrap;html=1;fillColor=#e3c800;fontColor=#000000;strokeColor=#B09500;" parent="ExSx5SIZApUU_Iw7rpWn-6" vertex="1">
          <mxGeometry x="-602" y="180" width="80" height="20" as="geometry" />
        </mxCell>
        <mxCell id="nmcxP7l3HHxIJU_-N-T5-20" value="172.16.0.31" style="text;html=1;align=center;verticalAlign=middle;resizable=0;points=[];autosize=1;strokeColor=none;fillColor=none;" parent="ExSx5SIZApUU_Iw7rpWn-6" vertex="1">
          <mxGeometry x="-652" y="150" width="90" height="30" as="geometry" />
        </mxCell>
        <mxCell id="nmcxP7l3HHxIJU_-N-T5-21" value="eth2" style="rounded=0;whiteSpace=wrap;html=1;fillColor=#e3c800;fontColor=#000000;strokeColor=#B09500;" parent="ExSx5SIZApUU_Iw7rpWn-6" vertex="1">
          <mxGeometry x="-277.5" y="180" width="80" height="20" as="geometry" />
        </mxCell>
        <mxCell id="nmcxP7l3HHxIJU_-N-T5-22" value="&lt;div&gt;eth3&lt;/div&gt;" style="rounded=0;whiteSpace=wrap;html=1;fillColor=#e3c800;fontColor=#000000;strokeColor=#B09500;" parent="ExSx5SIZApUU_Iw7rpWn-6" vertex="1">
          <mxGeometry x="395.5" y="180" width="80" height="20" as="geometry" />
        </mxCell>
        <mxCell id="nmcxP7l3HHxIJU_-N-T5-23" value="10.0.0.31" style="text;html=1;align=center;verticalAlign=middle;resizable=0;points=[];autosize=1;strokeColor=none;fillColor=none;" parent="ExSx5SIZApUU_Iw7rpWn-6" vertex="1">
          <mxGeometry x="-512" y="150" width="70" height="30" as="geometry" />
        </mxCell>
        <mxCell id="nmcxP7l3HHxIJU_-N-T5-24" value="&lt;font style=&quot;font-size: 17px;&quot;&gt;Compute Node&lt;/font&gt;" style="text;html=1;align=center;verticalAlign=middle;resizable=0;points=[];autosize=1;strokeColor=none;fillColor=none;" parent="ExSx5SIZApUU_Iw7rpWn-6" vertex="1">
          <mxGeometry x="400" y="680" width="140" height="30" as="geometry" />
        </mxCell>
        <mxCell id="nmcxP7l3HHxIJU_-N-T5-25" value="br-provider" style="rounded=0;whiteSpace=wrap;html=1;fillColor=#B39D00;fontColor=#000000;strokeColor=#B09500;" parent="ExSx5SIZApUU_Iw7rpWn-6" vertex="1">
          <mxGeometry x="-350" y="240" width="225" height="80" as="geometry" />
        </mxCell>
        <mxCell id="nmcxP7l3HHxIJU_-N-T5-26" value="phy-br-provider" style="rounded=0;whiteSpace=wrap;html=1;fillColor=#e3c800;fontColor=#000000;strokeColor=#B09500;" parent="ExSx5SIZApUU_Iw7rpWn-6" vertex="1">
          <mxGeometry x="-292.5" y="360" width="110" height="20" as="geometry" />
        </mxCell>
        <mxCell id="nmcxP7l3HHxIJU_-N-T5-27" value="" style="endArrow=none;html=1;rounded=0;startArrow=none;startFill=0;endFill=0;strokeWidth=4;fillColor=#a20025;strokeColor=#1C6EFF;jumpStyle=arc;entryX=0.5;entryY=0;entryDx=0;entryDy=0;exitX=0.5;exitY=1;exitDx=0;exitDy=0;" parent="ExSx5SIZApUU_Iw7rpWn-6" source="nmcxP7l3HHxIJU_-N-T5-21" target="nmcxP7l3HHxIJU_-N-T5-30" edge="1">
          <mxGeometry width="50" height="50" relative="1" as="geometry">
            <mxPoint x="-226.5" y="100" as="sourcePoint" />
            <mxPoint x="-226.5" y="180" as="targetPoint" />
          </mxGeometry>
        </mxCell>
        <mxCell id="nmcxP7l3HHxIJU_-N-T5-28" value="" style="endArrow=none;html=1;rounded=0;startArrow=none;startFill=0;endFill=0;strokeWidth=4;fillColor=#a20025;strokeColor=#1C6EFF;jumpStyle=arc;entryX=0.5;entryY=0;entryDx=0;entryDy=0;exitX=0.5;exitY=1;exitDx=0;exitDy=0;" parent="ExSx5SIZApUU_Iw7rpWn-6" source="nmcxP7l3HHxIJU_-N-T5-31" target="nmcxP7l3HHxIJU_-N-T5-26" edge="1">
          <mxGeometry width="50" height="50" relative="1" as="geometry">
            <mxPoint x="-227.5" y="200" as="sourcePoint" />
            <mxPoint x="-227.5" y="225" as="targetPoint" />
          </mxGeometry>
        </mxCell>
        <mxCell id="nmcxP7l3HHxIJU_-N-T5-30" value="&lt;font color=&quot;#ffffff&quot;&gt;eth2&lt;/font&gt;" style="rounded=0;whiteSpace=wrap;html=1;fillColor=#6E6000;fontColor=#000000;strokeColor=#B09500;" parent="ExSx5SIZApUU_Iw7rpWn-6" vertex="1">
          <mxGeometry x="-277.5" y="240" width="80" height="20" as="geometry" />
        </mxCell>
        <mxCell id="nmcxP7l3HHxIJU_-N-T5-31" value="&lt;font color=&quot;#ffffff&quot;&gt;phy-br-provider&lt;/font&gt;" style="rounded=0;whiteSpace=wrap;html=1;fillColor=#6E6000;fontColor=#000000;strokeColor=#B09500;" parent="ExSx5SIZApUU_Iw7rpWn-6" vertex="1">
          <mxGeometry x="-298.75" y="300" width="122.5" height="20" as="geometry" />
        </mxCell>
        <mxCell id="nmcxP7l3HHxIJU_-N-T5-33" value="br-mgmt" style="rounded=0;whiteSpace=wrap;html=1;fillColor=#B39D00;fontColor=#000000;strokeColor=#B09500;" parent="ExSx5SIZApUU_Iw7rpWn-6" vertex="1">
          <mxGeometry x="323" y="240" width="225" height="80" as="geometry" />
        </mxCell>
        <mxCell id="nmcxP7l3HHxIJU_-N-T5-34" value="phy-br-mgmt" style="rounded=0;whiteSpace=wrap;html=1;fillColor=#e3c800;fontColor=#000000;strokeColor=#B09500;" parent="ExSx5SIZApUU_Iw7rpWn-6" vertex="1">
          <mxGeometry x="380.5" y="360" width="110" height="20" as="geometry" />
        </mxCell>
        <mxCell id="nmcxP7l3HHxIJU_-N-T5-35" value="" style="endArrow=none;html=1;rounded=0;startArrow=none;startFill=0;endFill=0;strokeWidth=4;fillColor=#a20025;strokeColor=#6F0000;jumpStyle=arc;entryX=0.5;entryY=0;entryDx=0;entryDy=0;exitX=0.5;exitY=1;exitDx=0;exitDy=0;" parent="ExSx5SIZApUU_Iw7rpWn-6" source="nmcxP7l3HHxIJU_-N-T5-22" target="nmcxP7l3HHxIJU_-N-T5-37" edge="1">
          <mxGeometry width="50" height="50" relative="1" as="geometry">
            <mxPoint x="435.5" y="190" as="sourcePoint" />
            <mxPoint x="446.5" y="180" as="targetPoint" />
          </mxGeometry>
        </mxCell>
        <mxCell id="nmcxP7l3HHxIJU_-N-T5-36" value="" style="endArrow=none;html=1;rounded=0;startArrow=none;startFill=0;endFill=0;strokeWidth=4;fillColor=#a20025;strokeColor=#6F0000;jumpStyle=arc;entryX=0.5;entryY=0;entryDx=0;entryDy=0;exitX=0.5;exitY=1;exitDx=0;exitDy=0;" parent="ExSx5SIZApUU_Iw7rpWn-6" source="nmcxP7l3HHxIJU_-N-T5-38" target="nmcxP7l3HHxIJU_-N-T5-34" edge="1">
          <mxGeometry width="50" height="50" relative="1" as="geometry">
            <mxPoint x="445.5" y="200" as="sourcePoint" />
            <mxPoint x="445.5" y="225" as="targetPoint" />
          </mxGeometry>
        </mxCell>
        <mxCell id="nmcxP7l3HHxIJU_-N-T5-37" value="&lt;font color=&quot;#ffffff&quot;&gt;eth3&lt;/font&gt;" style="rounded=0;whiteSpace=wrap;html=1;fillColor=#6E6000;fontColor=#000000;strokeColor=#B09500;" parent="ExSx5SIZApUU_Iw7rpWn-6" vertex="1">
          <mxGeometry x="395.5" y="240" width="80" height="20" as="geometry" />
        </mxCell>
        <mxCell id="nmcxP7l3HHxIJU_-N-T5-38" value="&lt;font color=&quot;#ffffff&quot;&gt;phy-br-mgmt&lt;/font&gt;" style="rounded=0;whiteSpace=wrap;html=1;fillColor=#6E6000;fontColor=#000000;strokeColor=#B09500;" parent="ExSx5SIZApUU_Iw7rpWn-6" vertex="1">
          <mxGeometry x="374.25" y="300" width="122.5" height="20" as="geometry" />
        </mxCell>
        <mxCell id="nmcxP7l3HHxIJU_-N-T5-39" value="br-int" style="rounded=0;whiteSpace=wrap;html=1;fillColor=#B39D00;fontColor=#000000;strokeColor=#B09500;" parent="ExSx5SIZApUU_Iw7rpWn-6" vertex="1">
          <mxGeometry x="-57.5" y="410" width="290" height="80" as="geometry" />
        </mxCell>
        <mxCell id="nmcxP7l3HHxIJU_-N-T5-40" value="&lt;font color=&quot;#ffffff&quot;&gt;int-br-provider&lt;/font&gt;" style="rounded=0;whiteSpace=wrap;html=1;fillColor=#6E6000;fontColor=#000000;strokeColor=#B09500;" parent="ExSx5SIZApUU_Iw7rpWn-6" vertex="1">
          <mxGeometry x="-47" y="410" width="122.5" height="20" as="geometry" />
        </mxCell>
        <mxCell id="nmcxP7l3HHxIJU_-N-T5-41" value="&lt;font color=&quot;#ffffff&quot;&gt;int-br-mgmt&lt;/font&gt;" style="rounded=0;whiteSpace=wrap;html=1;fillColor=#6E6000;fontColor=#000000;strokeColor=#B09500;" parent="ExSx5SIZApUU_Iw7rpWn-6" vertex="1">
          <mxGeometry x="100.5" y="410" width="122.5" height="20" as="geometry" />
        </mxCell>
        <mxCell id="nmcxP7l3HHxIJU_-N-T5-42" value="int-br-provider" style="rounded=0;whiteSpace=wrap;html=1;fillColor=#e3c800;fontColor=#000000;strokeColor=#B09500;" parent="ExSx5SIZApUU_Iw7rpWn-6" vertex="1">
          <mxGeometry x="-47" y="360" width="122.5" height="20" as="geometry" />
        </mxCell>
        <mxCell id="nmcxP7l3HHxIJU_-N-T5-43" value="int-br-mgmt" style="rounded=0;whiteSpace=wrap;html=1;fillColor=#e3c800;fontColor=#000000;strokeColor=#B09500;" parent="ExSx5SIZApUU_Iw7rpWn-6" vertex="1">
          <mxGeometry x="100.5" y="360" width="122.5" height="20" as="geometry" />
        </mxCell>
        <mxCell id="nmcxP7l3HHxIJU_-N-T5-44" value="" style="endArrow=none;html=1;rounded=0;startArrow=none;startFill=0;endFill=0;strokeWidth=4;fillColor=#a20025;strokeColor=#1C6EFF;jumpStyle=arc;entryX=0;entryY=0.5;entryDx=0;entryDy=0;exitX=1;exitY=0.5;exitDx=0;exitDy=0;" parent="ExSx5SIZApUU_Iw7rpWn-6" source="nmcxP7l3HHxIJU_-N-T5-26" target="nmcxP7l3HHxIJU_-N-T5-42" edge="1">
          <mxGeometry width="50" height="50" relative="1" as="geometry">
            <mxPoint x="-227" y="330" as="sourcePoint" />
            <mxPoint x="-227" y="370" as="targetPoint" />
          </mxGeometry>
        </mxCell>
        <mxCell id="nmcxP7l3HHxIJU_-N-T5-45" value="" style="endArrow=none;html=1;rounded=0;startArrow=none;startFill=0;endFill=0;strokeWidth=4;fillColor=#a20025;strokeColor=#FF9933;jumpStyle=arc;exitX=0.5;exitY=1;exitDx=0;exitDy=0;entryX=0.5;entryY=0;entryDx=0;entryDy=0;" parent="ExSx5SIZApUU_Iw7rpWn-6" source="PTYmkBVkSRzFn1gX9XiX-7" target="8hwlycpKDpt2aF7OGgKg-3" edge="1">
          <mxGeometry width="50" height="50" relative="1" as="geometry">
            <mxPoint x="-172" y="380" as="sourcePoint" />
            <mxPoint x="88" y="520" as="targetPoint" />
          </mxGeometry>
        </mxCell>
        <mxCell id="nmcxP7l3HHxIJU_-N-T5-46" value="" style="endArrow=none;html=1;rounded=0;startArrow=none;startFill=0;endFill=0;strokeWidth=4;fillColor=#a20025;strokeColor=#6F0000;jumpStyle=arc;entryX=1;entryY=0.5;entryDx=0;entryDy=0;exitX=0;exitY=0.5;exitDx=0;exitDy=0;" parent="ExSx5SIZApUU_Iw7rpWn-6" source="nmcxP7l3HHxIJU_-N-T5-34" target="nmcxP7l3HHxIJU_-N-T5-43" edge="1">
          <mxGeometry width="50" height="50" relative="1" as="geometry">
            <mxPoint x="446" y="330" as="sourcePoint" />
            <mxPoint x="446" y="370" as="targetPoint" />
          </mxGeometry>
        </mxCell>
        <mxCell id="nmcxP7l3HHxIJU_-N-T5-47" value="" style="endArrow=none;html=1;rounded=0;startArrow=none;startFill=0;endFill=0;strokeWidth=4;fillColor=#a20025;strokeColor=#6F0000;jumpStyle=arc;entryX=0.5;entryY=0;entryDx=0;entryDy=0;exitX=0.5;exitY=1;exitDx=0;exitDy=0;" parent="ExSx5SIZApUU_Iw7rpWn-6" source="nmcxP7l3HHxIJU_-N-T5-43" target="nmcxP7l3HHxIJU_-N-T5-41" edge="1">
          <mxGeometry width="50" height="50" relative="1" as="geometry">
            <mxPoint x="391" y="380" as="sourcePoint" />
            <mxPoint x="233" y="380" as="targetPoint" />
          </mxGeometry>
        </mxCell>
        <mxCell id="PTYmkBVkSRzFn1gX9XiX-7" value="&lt;font color=&quot;#ffffff&quot;&gt;tap635485ff-6c&lt;/font&gt;" style="rounded=0;whiteSpace=wrap;html=1;fillColor=#6E6000;fontColor=#000000;strokeColor=#B09500;" parent="ExSx5SIZApUU_Iw7rpWn-6" vertex="1">
          <mxGeometry x="26.25" y="470" width="122.5" height="20" as="geometry" />
        </mxCell>
        <mxCell id="PTYmkBVkSRzFn1gX9XiX-8" value="tag 1" style="text;html=1;align=center;verticalAlign=middle;resizable=0;points=[];autosize=1;strokeColor=none;fillColor=none;" parent="ExSx5SIZApUU_Iw7rpWn-6" vertex="1">
          <mxGeometry x="90" y="489" width="50" height="30" as="geometry" />
        </mxCell>
        <mxCell id="PTYmkBVkSRzFn1gX9XiX-9" value="" style="endArrow=none;html=1;rounded=0;startArrow=none;startFill=0;endFill=0;strokeWidth=4;fillColor=#a20025;strokeColor=#1C6EFF;jumpStyle=arc;entryX=0.5;entryY=0;entryDx=0;entryDy=0;exitX=0.5;exitY=1;exitDx=0;exitDy=0;" parent="ExSx5SIZApUU_Iw7rpWn-6" source="nmcxP7l3HHxIJU_-N-T5-42" target="nmcxP7l3HHxIJU_-N-T5-40" edge="1">
          <mxGeometry width="50" height="50" relative="1" as="geometry">
            <mxPoint x="-227" y="330" as="sourcePoint" />
            <mxPoint x="-227" y="370" as="targetPoint" />
          </mxGeometry>
        </mxCell>
        <mxCell id="PTYmkBVkSRzFn1gX9XiX-10" value="&lt;div&gt;tag なし&lt;br&gt;&lt;/div&gt;&lt;div&gt;&amp;nbsp;&amp;nbsp;&amp;nbsp; ↓&lt;br&gt;&lt;/div&gt;&lt;div&gt;tag 1&lt;br&gt;&lt;/div&gt;" style="text;html=1;whiteSpace=wrap;overflow=hidden;rounded=1;fillColor=#ffe6cc;strokeColor=#d79b00;arcSize=12;" parent="ExSx5SIZApUU_Iw7rpWn-6" vertex="1">
          <mxGeometry x="-87" y="396" width="52" height="50" as="geometry" />
        </mxCell>
        <mxCell id="PTYmkBVkSRzFn1gX9XiX-11" value="&lt;div&gt;tag なし&lt;br&gt;&lt;/div&gt;&lt;div&gt;&amp;nbsp;&amp;nbsp;&amp;nbsp; ↑&lt;br&gt;&lt;/div&gt;&lt;div&gt;tag 1&lt;br&gt;&lt;/div&gt;" style="text;html=1;whiteSpace=wrap;overflow=hidden;rounded=1;fillColor=#ffe6cc;strokeColor=#d79b00;arcSize=12;" parent="ExSx5SIZApUU_Iw7rpWn-6" vertex="1">
          <mxGeometry x="-182.5" y="280" width="52" height="50" as="geometry" />
        </mxCell>
        <mxCell id="8hwlycpKDpt2aF7OGgKg-3" value="tap635485ff-6c" style="rounded=0;whiteSpace=wrap;html=1;fillColor=#e3c800;fontColor=#000000;strokeColor=#B09500;" vertex="1" parent="ExSx5SIZApUU_Iw7rpWn-6">
          <mxGeometry x="25.75" y="519" width="123" height="20" as="geometry" />
        </mxCell>
        <mxCell id="8hwlycpKDpt2aF7OGgKg-4" value="" style="endArrow=none;html=1;rounded=0;startArrow=none;startFill=0;endFill=0;strokeWidth=4;fillColor=#a20025;strokeColor=#FF9933;jumpStyle=arc;exitX=0.5;exitY=1;exitDx=0;exitDy=0;" edge="1" parent="ExSx5SIZApUU_Iw7rpWn-6" source="8hwlycpKDpt2aF7OGgKg-3">
          <mxGeometry width="50" height="50" relative="1" as="geometry">
            <mxPoint x="87.75" y="550" as="sourcePoint" />
            <mxPoint x="87" y="580" as="targetPoint" />
          </mxGeometry>
        </mxCell>
        <object label="インスタンス" id="PTYmkBVkSRzFn1gX9XiX-1">
          <mxCell style="locked=1;" parent="0" />
        </object>
        <mxCell id="PTYmkBVkSRzFn1gX9XiX-2" value="&lt;font style=&quot;font-size: 17px;&quot;&gt;instance00&lt;/font&gt;" style="rounded=1;whiteSpace=wrap;html=1;fillColor=#b8d2fa;strokeColor=#6c8ebf;align=center;horizontal=1;" parent="PTYmkBVkSRzFn1gX9XiX-1" vertex="1">
          <mxGeometry x="-590" y="570" width="1090" height="90" as="geometry" />
        </mxCell>
        <mxCell id="PTYmkBVkSRzFn1gX9XiX-4" value="172.16.0.112" style="text;html=1;align=center;verticalAlign=middle;resizable=0;points=[];autosize=1;strokeColor=none;fillColor=none;" parent="PTYmkBVkSRzFn1gX9XiX-1" vertex="1">
          <mxGeometry x="150" y="570" width="90" height="30" as="geometry" />
        </mxCell>
        <mxCell id="8hwlycpKDpt2aF7OGgKg-2" value="eth0" style="rounded=0;whiteSpace=wrap;html=1;fillColor=#e3c800;fontColor=#000000;strokeColor=#B09500;" vertex="1" parent="PTYmkBVkSRzFn1gX9XiX-1">
          <mxGeometry x="25" y="570" width="123" height="20" as="geometry" />
        </mxCell>
      </root>
    </mxGraphModel>
  </diagram>
</mxfile>
